<svg aria-hidden="true" style="position: absolute; width: 0; height: 0; overflow: hidden;" version="1.1" xmlns="http://www.w3.org/2000/svg" xmlns:xlink="http://www.w3.org/1999/xlink">
<defs>
<symbol id="icon-mobile-menu-burger" viewBox="0 0 32 32">
<path d="M0 7.5c0-0.398 0.158-0.779 0.439-1.061s0.663-0.439 1.061-0.439h29c0.398 0 0.779 0.158 1.061 0.439s0.439 0.663 0.439 1.061-0.158 0.779-0.439 1.061c-0.281 0.281-0.663 0.439-1.061 0.439h-29c-0.398 0-0.779-0.158-1.061-0.439s-0.439-0.663-0.439-1.061zM0 16c0-0.398 0.158-0.779 0.439-1.061s0.663-0.439 1.061-0.439h29c0.398 0 0.779 0.158 1.061 0.439s0.439 0.663 0.439 1.061-0.158 0.779-0.439 1.061c-0.281 0.281-0.663 0.439-1.061 0.439h-29c-0.398 0-0.779-0.158-1.061-0.439s-0.439-0.663-0.439-1.061zM1.5 23c-0.398 0-0.779 0.158-1.061 0.439s-0.439 0.663-0.439 1.061 0.158 0.779 0.439 1.061c0.281 0.281 0.663 0.439 1.061 0.439h29c0.398 0 0.779-0.158 1.061-0.439s0.439-0.663 0.439-1.061-0.158-0.779-0.439-1.061c-0.281-0.281-0.663-0.439-1.061-0.439h-29z"></path>
</symbol>
<symbol id="icon-close" viewBox="0 0 32 32">
<path d="M18.121 16l5.938-5.937c0.282-0.281 0.44-0.663 0.441-1.061s-0.157-0.78-0.439-1.062c-0.281-0.282-0.663-0.44-1.061-0.441s-0.78 0.157-1.062 0.439l-5.937 5.938-5.937-5.938c-0.282-0.282-0.664-0.44-1.063-0.44s-0.781 0.158-1.063 0.44c-0.282 0.282-0.44 0.664-0.44 1.063s0.158 0.781 0.44 1.063l5.938 5.937-5.938 5.937c-0.282 0.282-0.44 0.664-0.44 1.063s0.158 0.781 0.44 1.063c0.282 0.282 0.664 0.44 1.063 0.44s0.781-0.158 1.063-0.44l5.937-5.938 5.937 5.938c0.282 0.282 0.664 0.44 1.063 0.44s0.781-0.158 1.063-0.44c0.282-0.282 0.44-0.664 0.44-1.063s-0.158-0.781-0.44-1.063l-5.941-5.937z"></path>
</symbol>
</defs>
</svg>